<?xml version="1.0" encoding="UTF-8" standalone="no"?><!DOCTYPE svg PUBLIC "-//W3C//DTD SVG 1.1//EN" "http://www.w3.org/Graphics/SVG/1.1/DTD/svg11.dtd"><svg width="100%" height="100%" viewBox="0 0 5315 1772" version="1.1" xmlns="http://www.w3.org/2000/svg" xmlns:xlink="http://www.w3.org/1999/xlink" xml:space="preserve" xmlns:serif="http://www.serif.com/" style="fill-rule:evenodd;clip-rule:evenodd;stroke-linejoin:round;stroke-miterlimit:2;"><g id="Background"><path d="M2786.568,1606.619l-30.085,0c-0.981,-0.703 0.15,-2.82 -0.83,-3.523c-1.453,-1.041 -1.484,-0.652 -19.993,-9.97c-16.319,-8.216 -174.841,-88.02 -202.202,-106.174c-2.598,-1.724 -2.46,-3.773 25.308,-29.637c92.985,-86.611 93.89,-89.553 100.842,-86.478c3.87,1.712 103.727,65.909 112.716,71.688c104.765,67.353 107.288,70.374 113.556,64.438c54.802,-51.892 39.095,-102.013 30.499,-129.147c-20.653,-65.194 -23.903,-104.922 -31.78,-144.162c-4.33,-21.571 -5.358,-41.57 -13.487,-32.141c-3.945,4.576 -3.652,4.541 -7.656,8.997c-117.134,130.328 -116.857,134.788 -122.949,132.036c-6.365,-2.876 -49.137,-39.366 -53.302,-42.919c-71.604,-61.087 -87.431,-64.067 -102.05,-105.526c-14.243,-40.391 -2.187,-426.423 -7.154,-437.668c-15.119,-34.229 -12.605,-44.091 72.523,-102.713c169.457,-116.693 169.843,-117.208 179.518,-117.42c7.256,-0.159 13.297,-0.291 82.669,37.379c108.273,58.793 114.133,57.943 121.895,91.784c3.164,13.794 -0.82,448.155 2.195,498.276c9.497,157.842 66.661,195.06 37.332,227.356c-6.384,7.029 -254.035,191.368 -287.566,215.525l-51.856,-457.817c76.247,67.105 107.768,58.525 134.143,36.804c25.335,-20.865 22.083,-26.495 22.083,-269.267c0,-184.985 -0.756,-194.951 -21.756,-209.225c-7.849,-5.335 -140.337,-81.39 -145.437,-77.48c-11.327,8.683 -9.396,79.378 -9.396,266.649c0,86.973 -0.32,86.753 -0.338,173.824c-0.007,35.269 -2.139,49.891 20.701,78.695l51.856,457.817Z" style="fill-opacity:1;"/><path d="M3827.846,1255.704c-70.791,69.656 -71.678,99.043 -116.387,70.121c-86.53,-55.976 -137.336,-74.645 -136.941,-192.212c0.165,-49.021 0.093,-48.95 0.01,-374.384c-0.02,-77.242 12.926,-77.581 96.939,-135.08c38.717,-26.498 38.102,-27.031 86.966,-60.085c49.068,-33.191 54.072,-38.325 104.974,-13.043c125.715,62.44 130.266,70.134 136.741,81.08c10.632,17.973 9.865,19.197 9.865,260.838c-0,251.854 -13.749,271.994 41.225,323.01c11.732,10.887 27.976,13.944 17.03,22.763c-79.295,63.882 -109.767,104.237 -134.075,84.173c-69.259,-57.167 -70.784,-67.234 -72.034,-75.487c-2.696,-17.795 -0.164,-20.931 -5.916,-20.775c-3.321,0.09 -26.272,26.62 -28.399,29.079l16.345,-344.431c-45.425,35.86 -45.66,35.023 -93.87,66.736c-46.63,30.673 -42.614,87.173 -42.022,95.499c1.638,23.041 1.939,99.463 87.448,134.554c34.099,13.994 70.536,-8.676 71.112,-54.369c0.258,-20.486 3.187,-253.106 -1.458,-256.092c-0.241,-0.155 -1.396,-2.221 -21.209,13.672l-16.345,344.431l-50.797,-337.721c40.728,-23.545 86.572,-43.488 91.07,-82.04c0.289,-2.473 6.544,-111.085 -11.186,-127.595c-8.782,-8.178 -9.374,-7.156 -137.867,-59.102c-6.444,-2.605 -7.773,-0.612 -7.774,6.302c-0.033,274.22 -1.058,274.092 -0.056,297.903c0.438,10.409 21.137,-6.526 65.812,-35.47l50.797,337.721Z" style="fill-opacity:1;"/><path d="M1274.069,1275.651c-1.407,-1.272 -17.582,-15.904 -17.582,-15.904c-7.878,-7.66 4.334,-18.361 11.319,-36.326c13.656,-35.123 15.985,-41.113 13.386,-470.871c-0.448,-74.152 -39.917,-85.547 -47.817,-104.134c-1.976,-4.649 16.22,-18.519 23.535,-24.606c80.959,-67.365 80.782,-72.218 89.133,-68.836c1.3,0.527 64.637,81.234 68.231,85.97c7.469,9.844 10.956,6.672 30.75,-10.065c74.048,-62.615 92.737,-89.794 157.082,-47.165c86.337,57.199 86.555,97.206 88.832,105.088c4.75,16.442 0.191,391.49 2.35,448.163c3.581,94 64.566,96.027 46.064,112.674c-0.13,0.117 -108.548,87.642 -109.355,87.947c-7.294,2.759 -18.283,-14.247 -18.611,-14.656c-48.501,-60.458 -57.438,-67.27 -56.746,-89.032c0.361,-11.345 8.137,-412.094 8.833,-447.928c0.207,-10.685 1.608,-82.854 -83.846,-104c-66.957,-16.569 -64.597,36.71 -64.604,83.943c-0.06,375.496 -1.166,375.578 2.815,407.973c6.343,51.617 34.389,53.852 37.071,73.546c1.11,8.151 1.985,14.573 -76.735,68.441c-39.653,27.135 -46.048,12.916 -104.106,-40.223Z" style="fill-opacity:1;"/><path d="M2484.075,1168.836c-57.447,62.331 -121.64,130.467 -132.277,141.756c-36.93,39.198 -38.058,50.054 -54.424,38.573c-176.961,-124.151 -179.954,-125.166 -184.738,-148.978c-4.022,-20.022 -8.026,-253.61 -5.526,-297.268c10.245,-178.877 -18.062,-201.683 55.248,-245.857c187.89,-113.216 192.028,-132.376 202.693,-118.221c47.632,63.224 106.929,151.162 115.93,164.511c46.683,69.231 8.936,87.704 -94.509,167.496c-134.519,103.761 -137.05,102.809 -142.656,118.602c-3.131,8.82 -6.13,102.025 19.468,146.684c33.509,58.459 121.223,85.188 141.492,76.217c21.263,-9.411 108.227,-120.642 118.999,-92.704c2.884,7.481 -6.169,11.325 -39.701,49.19l-213.893,-264.178c9.786,-9.149 45.904,-43.663 61.129,-59.165c45.454,-46.284 39.119,-56.806 9.394,-98.723c-5.847,-8.245 -70.202,-98.997 -75.578,-101.246c-4.368,-1.827 -8.185,0.073 -15.845,57.02c-2.279,16.943 -10.747,79.895 -0.469,213.689c0.572,7.44 5.3,3.638 21.369,-11.574l213.893,264.178Z" style="fill-opacity:1;"/><path d="M4262.06,1305.738c-30.263,24.289 -35.99,33.459 -70.481,7.016c-80.936,-62.053 -85.437,-62.44 -82.026,-69.21c29.398,-58.347 32.336,-59.165 32.336,-176.78c-0,-612.346 2.437,-612.133 -0.435,-665.277c-2.96,-54.759 -61.405,-51.252 -33.453,-75.611c12.466,-10.863 13.809,-8.821 176.833,-106.993c11.616,-6.995 18.847,-12.732 17.283,-1.171c-11.167,82.549 -15.81,81.992 -15.81,173.812c-0,753.654 -2.755,754.014 2.624,778.581c15.541,70.975 81.64,52.936 56.456,71.716c-6.735,5.022 -43.05,32.103 -83.327,63.918Z" style="fill-opacity:1;"/><path d="M1902.458,410.002c37.059,-41.265 37.056,-42.387 41.801,-42.166c4.18,0.195 1.303,95.211 2.038,180.845c0.097,11.252 12.238,8.427 64.748,8.427c116.19,-0 124.081,-4.416 121.702,5.034c-0.336,1.334 -19.661,43.358 -22.877,49.238c-18.238,33.344 -29.151,17.061 -155.689,20.416c-10.208,0.271 -6.978,25.783 -6.978,37.178c-0,474.916 -0.356,474.999 2.609,491.592c9.451,52.889 104.089,53.263 104.365,66.673c0.06,2.941 -95.826,104.591 -103.264,107.056c-9.875,3.272 -11.775,3.457 -116.111,-58.537c-38.149,-22.667 -24.61,-59.462 -24.022,-152.165c1.135,-178.816 8.327,-452.644 5.093,-491.247c-4.599,-54.891 -101.9,-14.319 -95.152,-33.296c0.657,-1.849 167.152,-173.969 181.738,-189.048Z" style="fill-opacity:1;"/><path d="M3162.442,587.032c45.944,-40.272 46.539,-47.807 54.45,-40.685c63.781,57.414 74.325,63.021 78.246,115.824c0.748,10.067 15.132,-6.53 49.828,-36.472c47.579,-41.06 46.919,-41.467 94.268,-82.725c8.843,-7.706 21.605,6.912 26.965,10.967c81.332,61.533 87.338,64.421 88.711,81.64c1.205,15.115 -52.92,65.772 -101.361,122.261c-13.2,15.393 -13.341,-1.305 -26.088,-24.827c-39.843,-73.525 -136.422,-74.477 -134.574,-13.892c1.183,38.809 -0.988,419.821 1.371,454.644c3.992,58.943 65.028,50.415 58.655,67.223c-2.021,5.332 -82.129,66.15 -89.432,71.694c-36.544,27.744 -42.352,15.419 -78.044,-13.298c-61.135,-49.189 -64.817,-49.754 -61.728,-55.641c20.583,-39.221 35.456,-37.659 35.462,-207.064c0.011,-313.707 1.197,-314.564 -8.863,-337.352c-13.74,-31.125 -18.315,-27.754 -42.194,-54.255c-4.876,-5.412 -0.501,-6.812 54.327,-58.041Z" style="fill-opacity:1;"/><path d="M1203.817,1242.234c6.691,10.657 -2.099,11.956 -17.299,23.283c-71.258,53.1 -90.703,74.954 -110.564,60.642c-14.978,-10.793 -86.985,-66.379 -88.082,-68.674c-6.495,-13.576 21.446,-52.579 21.922,-127.17c1.603,-251.276 0.432,-423.016 0.199,-424.404c-9.342,-55.64 -65.252,-54.087 -50.543,-65.484c82.161,-63.661 112.316,-97.449 121.175,-90.256c85.178,69.156 69.842,84.382 68.809,242.491c-0.196,29.963 -2.312,353.766 1.794,374.539c6.818,34.493 19.708,45.73 52.591,75.034Z" style="fill-opacity:1;"/><path d="M1069.434,510.853c-32.86,-151.643 -163.109,-116.719 -125.907,-134.069c18.777,-8.757 91.442,-4.881 119.251,-118.665c9.144,-37.413 0.483,69.553 92.285,107.165c29.22,11.972 68.206,10.724 37.348,16.861c-59.65,11.864 -106.73,57.281 -118.028,126.044c-0.559,3.403 -1.521,2.656 -4.949,2.664Z" style="fill-opacity:1;"/></g></svg>